<svg xmlns="http://www.w3.org/2000/svg" viewBox="0 0 120 40" width="120" height="40">
  <rect width="120" height="40" rx="7" fill="#000"/>
  <g fill="#fff">
    <path d="M24.8,20.3c0-3.2,2.6-4.8,2.8-4.9c-1.5-2.2-3.9-2.5-4.7-2.5c-2-.2-3.9,1.2-4.9,1.2c-1,0-2.6-1.2-4.2-1.1 c-2.1,0-4.1,1.3-5.2,3.2c-2.3,3.9-0.6,9.7,1.6,12.9c1.1,1.6,2.4,3.3,4,3.2c1.6-0.1,2.2-1,4.2-1c1.9,0,2.5,1,4.2,1 c1.7,0,2.8-1.6,3.9-3.1c1.3-1.8,1.8-3.5,1.8-3.6C28.4,25.4,24.8,24.1,24.8,20.3z"/>
    <path d="M22,12.2c0.9-1.1,1.5-2.6,1.3-4.1c-1.3,0.1-2.8,0.9-3.8,1.9c-0.8,0.9-1.5,2.5-1.3,3.9C19.6,14.1,21.1,13.3,22,12.2z"/>
    <text x="42" y="17" font-family="sans-serif" font-size="8">Download on the</text>
    <text x="42" y="30" font-family="sans-serif" font-size="16" font-weight="600">App Store</text>
  </g>
</svg> 