<svg xmlns="http://www.w3.org/2000/svg" viewBox="0 0 135 40" width="135" height="40">
  <rect width="135" height="40" rx="7" fill="#000"/>
  <linearGradient id="a" x1="91.54%" y1="5.27%" x2="-38.27%" y2="92.62%">
    <stop offset="0%" stop-color="#00A0FF"/>
    <stop offset=".7%" stop-color="#00A1FF"/>
    <stop offset="26%" stop-color="#00BEFF"/>
    <stop offset="51.3%" stop-color="#00D2FF"/>
    <stop offset="76%" stop-color="#00DFFF"/>
    <stop offset="100%" stop-color="#00E3FF"/>
  </linearGradient>
  <linearGradient id="b" x1="107.7%" y1="50%" x2="-130.7%" y2="50%">
    <stop offset="0%" stop-color="#FFE000"/>
    <stop offset="41%" stop-color="#FFBD00"/>
    <stop offset="78.1%" stop-color="#FFA500"/>
    <stop offset="100%" stop-color="#FF9C00"/>
  </linearGradient>
  <linearGradient id="c" x1="86.39%" y1="30.96%" x2="-50.14%" y2="135.29%">
    <stop offset="0%" stop-color="#FF3A44"/>
    <stop offset="100%" stop-color="#C31162"/>
  </linearGradient>
  <linearGradient id="d" x1="-18.85%" y1="-11.83%" x2="42.06%" y2="35.1%">
    <stop offset="0%" stop-color="#32A071"/>
    <stop offset="6.85%" stop-color="#2DA771"/>
    <stop offset="47.6%" stop-color="#15CF74"/>
    <stop offset="80.1%" stop-color="#06E775"/>
    <stop offset="100%" stop-color="#00F076"/>
  </linearGradient>
  <g fill="none">
    <path fill="#FFF" d="M130,40H5c-2.8,0-5-2.2-5-5V5c0-2.8,2.2-5,5-5h125c2.8,0,5,2.2,5,5v30C135,37.8,132.8,40,130,40z"/>
    <path d="M130,0.8c2.3,0,4.2,1.9,4.2,4.2v30c0,2.3-1.9,4.2-4.2,4.2H5c-2.3,0-4.2-1.9-4.2-4.2V5c0-2.3,1.9-4.2,4.2-4.2H130 M130,0H5 C2.2,0,0,2.3,0,5v30c0,2.8,2.2,5,5,5h125c2.8,0,5-2.2,5-5V5C135,2.3,132.8,0,130,0L130,0z"/>
    <path fill="#FFF" d="M47.4,10.2c0,0.8-0.2,1.5-0.7,2c-0.6,0.6-1.3,0.9-2.2,0.9s-1.6-0.3-2.2-0.9s-0.9-1.3-0.9-2.2s0.3-1.6,0.9-2.2 c0.6-0.6,1.3-0.9,2.2-0.9c0.4,0,0.8,0.1,1.2,0.3c0.4,0.2,0.7,0.4,0.9,0.7l-0.5,0.5c-0.4-0.5-0.9-0.7-1.6-0.7c-0.6,0-1.2,0.2-1.6,0.7 c-0.5,0.4-0.7,1-0.7,1.7s0.2,1.3,0.7,1.7c0.5,0.4,1,0.7,1.6,0.7c0.7,0,1.2-0.2,1.7-0.7c0.3-0.3,0.5-0.7,0.5-1.2h-2.2V9.8h2.9 C47.4,9.9,47.4,10.1,47.4,10.2z"/>
    <text x="47" y="17" font-family="sans-serif" font-size="8" fill="#ffffff">GET IT ON</text>
    <text x="47" y="30" font-family="sans-serif" font-size="16" font-weight="600" fill="#ffffff">Google Play</text>
    <path fill="url(#a)" d="M10.4,7.5c-0.3,0.3-0.5,0.8-0.5,1.4v22.1c0,0.6,0.2,1.1,0.5,1.4l0.1,0.1l12.4-12.4V20v-0.1L10.4,7.5L10.4,7.5z"/>
    <path fill="url(#b)" d="M27,24.3l-4.1-4.1V20v-0.1l4.1-4.1l0.1,0.1l4.9,2.8c1.4,0.8,1.4,2.1,0,2.9L27,24.3L27,24.3z"/>
    <path fill="url(#c)" d="M27.1,24.2L22.9,20L10.4,32.5c0.5,0.5,1.2,0.5,2.1,0.1L27.1,24.2"/>
    <path fill="url(#d)" d="M27.1,15.8L12.5,7.5c-0.9-0.5-1.6-0.4-2.1,0.1L22.9,20L27.1,15.8z"/>
    <path opacity=".2" fill="#000" d="M27,24.1l-14.5,8.2c-0.8,0.5-1.5,0.4-2,0l0,0l-0.1,0.1l0,0c0.5,0.4,1.2,0.5,2,0L27,24.1L27,24.1z"/>
    <path opacity=".12" fill="#000" d="M10.4,32.3c-0.3-0.3-0.5-0.8-0.5-1.4v0.1c0,0.6,0.2,1.1,0.5,1.4V32.3L10.4,32.3z"/>
    <path opacity=".12" fill="#000" d="M32,21.3l-5,2.8l0.1,0.1l4.9-2.8c0.7-0.4,1-0.9,1-1.4l0,0C33,20.5,32.6,20.9,32,21.3z"/>
    <path opacity=".25" fill="#FFF" d="M12.5,7.6L32,18.7c0.6,0.4,1,0.8,1,1.3l0,0c0-0.5-0.3-1-1-1.4L12.5,7.5C11.1,6.7,10,7.3,10,8.9v0.1C10,7.5,11.1,6.8,12.5,7.6z"/>
  </g>
</svg> 